<?xml version="1.0" standalone="no"?>
<!DOCTYPE svg PUBLIC "-//W3C//DTD SVG 20010904//EN"
 "http://www.w3.org/TR/2001/REC-SVG-20010904/DTD/svg10.dtd">
<svg version="1.0" xmlns="http://www.w3.org/2000/svg"
 width="225.000000pt" height="225.000000pt" viewBox="0 0 225.000000 225.000000"
 preserveAspectRatio="xMidYMid meet">

<g transform="translate(0.000000,225.000000) scale(0.100000,-0.100000)"
fill="#FFFFFF" stroke="none">
<path d="M1295 2240 c-327 -51 -585 -279 -677 -597 -19 -65 -23 -102 -23 -226
l0 -148 -94 3 -95 3 -24 98 -24 97 -175 0 -174 0 3 -72 3 -73 115 -5 115 -5
106 -415 106 -415 586 -3 586 -2 11 57 c6 32 13 67 15 78 3 14 32 33 98 63
268 123 447 373 475 662 28 283 -84 552 -302 727 -81 64 -220 133 -317 157
-83 20 -235 28 -314 16z m45 -271 l0 -111 -72 7 c-40 4 -76 9 -81 12 -13 8 46
103 95 154 26 27 49 49 52 49 3 0 6 -50 6 -111z m208 57 c36 -39 98 -143 90
-151 -2 -1 -36 -6 -75 -10 l-73 -7 0 106 c0 58 4 106 9 106 5 0 27 -20 49 -44z
m-490 -65 c-19 -48 -21 -49 -49 -39 -17 6 -29 14 -27 19 4 10 80 68 90 69 4 0
-2 -22 -14 -49z m744 17 c27 -18 48 -35 48 -38 0 -3 -14 -11 -30 -17 -30 -11
-31 -11 -55 38 -14 27 -22 49 -18 49 4 0 29 -15 55 -32z m-854 -189 c33 -14
42 -23 38 -36 -7 -25 -23 -126 -31 -195 l-6 -58 -105 0 c-59 0 -104 4 -104 10
0 54 46 182 96 268 28 47 27 47 112 11z m1060 -46 c39 -75 72 -178 72 -222 0
-20 -5 -21 -105 -21 l-105 0 0 33 c0 26 -23 187 -33 228 -2 9 93 56 119 58 7
1 30 -34 52 -76z m-705 -29 l37 -6 0 -104 0 -104 -121 0 -122 0 7 67 c4 36 12
88 17 116 l11 49 67 -6 c36 -4 83 -9 104 -12z m404 -54 c7 -36 12 -86 13 -112
l0 -48 -115 0 -115 0 0 105 0 104 33 5 c54 9 100 13 137 12 35 -1 35 -1 47
-66z m-754 -342 c2 -18 3 -36 0 -40 -6 -11 -203 -10 -203 1 0 5 -3 23 -6 40
l-6 31 105 0 105 0 5 -32z m387 -8 l0 -41 -117 3 -118 3 -3 38 -3 37 120 0
121 0 0 -40z m380 0 l0 -40 -115 0 -115 0 0 40 0 40 115 0 115 0 0 -40z m360
20 c0 -71 -82 -270 -120 -292 -10 -6 -34 -1 -71 15 l-56 25 13 64 c7 35 16 96
20 136 l7 72 103 0 c98 0 104 -1 104 -20z m-480 -208 c0 -4 -20 -113 -45 -242
-25 -129 -45 -238 -45 -242 0 -5 -211 -8 -470 -8 -259 0 -470 1 -470 3 0 2
-27 109 -60 238 -33 129 -60 240 -60 247 0 9 122 12 575 12 316 0 575 -3 575
-8z m226 -202 l28 -11 -49 -34 c-27 -19 -52 -35 -57 -35 -4 0 2 20 14 45 24
49 25 50 64 35z"/>
<path d="M578 426 c-91 -33 -139 -94 -146 -186 -10 -138 76 -234 213 -235 74
0 142 36 183 97 23 36 27 52 27 115 l0 73 188 0 189 0 -7 -38 c-16 -96 52
-206 146 -237 85 -29 163 -9 227 56 109 112 63 303 -86 354 -63 21 -875 22
-934 1z m113 -154 c49 -41 15 -122 -51 -122 -31 0 -70 39 -70 70 0 10 9 29 21
44 25 31 66 35 100 8z m799 -2 c42 -42 12 -120 -47 -120 -34 0 -73 36 -73 69
0 59 78 93 120 51z"/>
</g>
</svg>
